PathFileType	4	(X/Y/Z)	Walk3.trc
DataRate	CameraRate	NumFrames	NumMarkers	Units	OrigDataRate	OrigDataStartFrame	OrigNumFrames
200.000000	200.000000	7	59	mm	200.000000	355	508
Frame#	Times		LFHD		RFHD		LBHD		RBHD		C7		T10		CLAV		STRN		RBack		LASI		RACR1		RUA1		RElbow		RFA1		RWRR		RWRU		RCAR		LACR1		LUA1		LElbow		LElbowM		LFA1		LWRR		LWRU		LCAR		RTH1		RTH3		RTH2		RTB1		RTB4		LTH1		LTH3		LTH2		LTH4		LLFC		LTB1		LTB2		LTB4		LMT1		LToe		LMMAL		RTB2		RTH4		LCAL		LTB3		RElbowM		LMT5		RTB3		LPSI		RPSI		LLMAL		RLFC		RASI		RMT1		RToe		RCAL		RMMAL		RMT5		RLMAL
			X1	Y1	Z1	X2	Y2	Z2	X3	Y3	Z3	X4	Y4	Z4	X5	Y5	Z5	X6	Y6	Z6	X7	Y7	Z7	X8	Y8	Z8	X9	Y9	Z9	X10	Y10	Z10	X11	Y11	Z11	X12	Y12	Z12	X13	Y13	Z13	X14	Y14	Z14	X15	Y15	Z15	X16	Y16	Z16	X17	Y17	Z17	X18	Y18	Z18	X19	Y19	Z19	X20	Y20	Z20	X21	Y21	Z21	X22	Y22	Z22	X23	Y23	Z23	X24	Y24	Z24	X25	Y25	Z25	X26	Y26	Z26	X27	Y27	Z27	X28	Y28	Z28	X29	Y29	Z29	X30	Y30	Z30	X31	Y31	Z31	X32	Y32	Z32	X33	Y33	Z33	X34	Y34	Z34	X35	Y35	Z35	X36	Y36	Z36	X37	Y37	Z37	X38	Y38	Z38	X39	Y39	Z39	X40	Y40	Z40	X41	Y41	Z41	X42	Y42	Z42	X43	Y43	Z43	X44	Y44	Z44	X45	Y45	Z45	X46	Y46	Z46	X47	Y47	Z47	X48	Y48	Z48	X49	Y49	Z49	X50	Y50	Z50	X51	Y51	Z51	X52	Y52	Z52	X53	Y53	Z53	X54	Y54	Z54	X55	Y55	Z55	X56	Y56	Z56	X57	Y57	Z57	X58	Y58	Z58	X59	Y59	Z59

355	1.775	90.69	1420.1	-20.033	83.054	1409.4	75.946	-41.645	1351.5	-47.496	-50.443	1344.7	85.096	-87.635	1261	15.164	-175.11	1061.2	17.457	53.89	1176.3	12.007	104.9	1068.6	10.02	-134.49	1133.2	129.04	17.327	803.25	-159.4	-16.438	1196.8	194.63	-4.1475	1046.9	267.2	-9.6769	918.05	290.86	50.498	802.48	293.28	65.568	702	255.68	33.232	703.29	320.4	81.543	647.37	306.8	-20.024	1213.7	-174.81	8.0368	1051.8	-249.33	-15.111	932.06	-276.68	-48.263	901.69	-214.98	80.287	865.43	-285.81	156.56	791.3	-244.15	125.37	763.88	-291.31	183.08	743.87	-282.2	-2.2716	630.13	218.5	42.744	470.03	165.73	71.278	570.28	176.29	116.73	301.92	85.294	121.33	215.23	76.38	-56.42	639.96	-204.67	-73.394	470.65	-165.69	-11.213	557.58	-165.39	-64.667	554.75	-189.57	-68.817	368.6	-133.83	-102.01	268.78	-66.943	-178.54	213.8	-118.97	-161.27	204.31	-59.899	-202.96	32.626	-21.384	-154.09	25.601	-48.324	-271.16	109.84	-6.304	90.97	208.14	129.37	17.645	548.57	196.29	-341.76	116.12	-40.297	-212.86	139.13	-54.778	-61.008	888.37	219.75	-247.77	31.055	-104.36	132.43	132.28	67.562	-229.58	844.96	-23.414	-212.45	838.33	82.761	-298.46	105.91	-85.201	49.173	390.11	141.78	53.006	808.45	158.18	208.15	42.988	27.26	260.48	52.953	57.976	44.4	27.683	62.575	104.32	71.568	22.54	192.81	25.39	117.43	100.24	60.027	105.5
356	1.78	96.161	1420.3	-19.202	88.687	1409.5	76.786	-36.092	1351.4	-46.475	-44.67	1344.6	86.124	-81.74	1261.2	16.337	-169.49	1061.5	18.672	59.636	1176.4	12.916	110.63	1068.6	10.86	-128.45	1133.3	130.28	22.795	803.47	-158.49	-10.25	1196.7	195.68	1.9613	1046.6	268.02	-3.3209	917.7	291.32	56.773	802.08	293.46	71.602	701.59	255.72	39.463	702.89	320.52	87.61	646.89	306.75	-14.514	1213.8	-173.81	13.078	1051.8	-248.34	-10.153	932.17	-275.61	-43.304	901.84	-213.84	84.965	865.2	-284.9	160.99	790.71	-243.64	129.49	763.36	-290.65	187.17	743.25	-281.86	4.0455	630.71	218.34	49.795	470.94	165.3	77.722	571.43	175.64	120.92	301.25	85.29	124.25	214.54	76.244	-49.402	640.11	-204.44	-64.967	470.54	-166.14	-3.6387	558.03	-165.11	-56.921	554.81	-189.65	-59.986	368.4	-134.75	-94.5	268.87	-68.002	-172.36	215.6	-119.8	-155.05	205.6	-60.829	-202.23	32.884	-21.425	-154.34	25.53	-48.246	-266.69	113.41	-7.0484	94.115	207.79	129.39	24.467	549.39	195.84	-336.87	121.88	-40.864	-207.89	141.51	-55.644	-54.751	888.18	220.21	-246.48	32.968	-104.38	134.13	131.44	67.241	-224.09	844.39	-22.826	-206.7	838.37	83.432	-294.31	110.14	-85.763	54.754	390.4	142.11	59.333	808.38	158.35	208.45	40.71	26.623	261.36	49.802	56.895	44.442	28.187	62.616	104.91	71.082	22.288	192.99	24.163	117.5	100.88	59.893	105.35
357	1.785	101.64	1420.6	-18.366	94.329	1409.8	77.63	-30.531	1351.4	-45.454	-38.888	1344.6	87.152	-75.838	1261.4	17.501	-163.89	1061.8	19.869	65.374	1176.4	13.817	116.33	1068.7	11.739	-122.4	1133.5	131.52	28.254	803.77	-157.52	-4.0294	1196.7	196.7	8.1243	1046.4	268.83	3.0637	917.43	291.78	63.076	801.76	293.63	77.666	701.27	255.72	45.738	702.57	320.62	93.722	646.49	306.64	-8.9712	1214	-172.81	18.109	1051.9	-247.33	-5.252	932.32	-274.51	-38.386	902.05	-212.63	89.552	864.97	-283.95	165.28	790.05	-243.13	133.45	762.81	-289.99	191.08	742.55	-281.52	10.382	631.36	218.19	56.863	471.89	164.97	84.173	572.62	175.01	125.01	300.58	85.348	127.07	213.86	76.164	-42.306	640.31	-204.23	-56.31	470.49	-166.63	4.0757	558.58	-164.85	-49.02	554.91	-189.75	-50.86	368.29	-135.7	-86.642	269.04	-69.121	-165.83	217.53	-120.64	-148.44	206.99	-61.8	-201.32	33.233	-21.47	-154.5	25.473	-48.212	-261.77	117.1	-7.7984	97.154	207.46	129.46	31.304	550.24	195.45	-331.5	127.81	-41.379	-202.53	144.01	-56.533	-48.487	888.1	220.68	-244.94	35.091	-104.38	135.71	130.63	66.976	-218.61	843.83	-22.298	-200.98	838.46	84.025	-289.75	114.55	-86.296	60.279	390.7	142.46	65.625	808.5	158.62	208.66	38.687	26.083	262.09	46.999	55.93	44.448	28.634	62.655	105.42	70.658	22.065	193.07	23.164	117.64	101.42	59.774	105.21
358	1.79	107.13	1420.8	-17.527	99.98	1410	78.476	-24.967	1351.5	-44.436	-33.102	1344.6	88.177	-69.942	1261.7	18.652	-158.3	1062.1	21.043	71.097	1176.5	14.704	122.02	1068.8	12.652	-116.35	1133.7	132.74	33.707	804.13	-156.53	2.2158	1196.7	197.71	14.345	1046.3	269.63	9.475	917.25	292.24	69.404	801.54	293.79	83.761	701.06	255.69	52.059	702.35	320.69	99.881	646.18	306.48	-3.4063	1214.2	-171.81	23.134	1052	-246.29	-0.40862	932.5	-273.36	-33.509	902.31	-211.36	94.047	864.75	-282.98	169.44	789.35	-242.6	137.27	762.25	-289.33	194.83	741.79	-281.19	16.722	632.07	218.06	63.883	472.85	164.76	90.602	573.81	174.43	129	299.91	85.471	129.77	213.2	76.142	-35.146	640.56	-204.03	-47.443	470.48	-167.14	11.915	559.23	-164.59	-40.981	555.07	-189.89	-41.463	368.26	-136.67	-78.45	269.28	-70.289	-158.96	219.57	-121.5	-141.47	208.47	-62.802	-200.2	33.694	-21.528	-154.55	25.438	-48.233	-256.41	120.87	-8.5451	100.08	207.13	129.59	38.111	551.13	195.14	-325.63	133.86	-41.835	-196.77	146.62	-57.435	-42.217	888.11	221.17	-243.13	37.426	-104.38	137.2	129.85	66.764	-213.13	843.29	-21.828	-195.3	838.58	84.541	-284.77	119.09	-86.794	65.727	390.99	142.83	71.881	808.79	158.99	208.8	36.921	25.624	262.7	44.538	55.069	44.432	29.027	62.695	105.85	70.295	21.873	193.09	22.379	117.82	101.87	59.669	105.08
359	1.795	112.62	1421.2	-16.686	105.64	1410.3	79.321	-19.402	1351.6	-43.424	-27.318	1344.6	89.197	-64.066	1262	19.788	-152.73	1062.5	22.193	76.801	1176.7	15.572	127.67	1069	13.594	-110.29	1134	133.94	39.154	804.55	-155.52	8.4785	1196.9	198.69	20.625	1046.3	270.42	15.911	917.16	292.7	75.761	801.41	293.94	89.89	700.94	255.63	58.428	702.21	320.73	106.09	645.95	306.28	2.169	1214.5	-170.81	28.16	1052.1	-245.24	4.3749	932.72	-272.18	-28.675	902.63	-210.05	98.451	864.53	-281.99	173.46	788.6	-242.08	140.93	761.67	-288.66	198.42	740.97	-280.85	23.05	632.82	217.98	70.791	473.8	164.68	96.981	574.97	173.94	132.87	299.24	85.66	132.36	212.56	76.175	-27.936	640.86	-203.86	-38.39	470.54	-167.68	19.861	559.96	-164.36	-32.823	555.28	-190.04	-31.825	368.32	-137.65	-69.947	269.6	-71.493	-151.76	221.72	-122.36	-134.14	210.02	-63.823	-198.81	34.289	-21.607	-154.42	25.43	-48.326	-250.59	124.7	-9.2787	102.88	206.8	129.76	44.843	552.03	194.94	-319.29	139.98	-42.223	-190.63	149.31	-58.341	-35.941	888.22	221.67	-241.02	39.971	-104.38	138.58	129.11	66.601	-207.65	842.76	-21.416	-189.65	838.74	84.979	-279.37	123.74	-87.25	71.07	391.28	143.21	78.098	809.24	159.46	208.88	35.404	25.233	263.2	42.405	54.298	44.404	29.369	62.737	106.21	69.989	21.707	193.07	21.786	118.02	102.24	59.574	104.96
360	1.8	118.13	1421.5	-15.847	111.3	1410.6	80.165	-13.842	1351.8	-42.419	-21.539	1344.7	90.21	-58.222	1262.4	20.907	-147.18	1062.9	23.315	82.481	1176.9	16.416	133.31	1069.2	14.558	-104.24	1134.4	135.12	44.597	805.03	-154.5	14.751	1197.1	199.64	26.969	1046.4	271.19	22.37	917.15	293.17	82.146	801.37	294.08	96.055	700.93	255.55	64.848	702.16	320.76	112.35	645.81	306.03	7.7415	1214.9	-169.83	33.188	1052.3	-244.16	9.0968	932.97	-270.97	-23.886	903	-208.68	102.76	864.32	-280.99	177.36	787.81	-241.54	144.45	761.08	-288	201.84	740.09	-280.52	29.352	633.62	217.94	77.52	474.72	164.74	103.28	576.06	173.56	136.62	298.58	85.914	134.84	211.94	76.259	-20.691	641.22	-203.7	-29.181	470.65	-168.24	27.896	560.78	-164.14	-24.569	555.55	-190.21	-21.977	368.48	-138.62	-61.16	270	-72.712	-144.26	223.96	-123.21	-126.48	211.65	-64.849	-197.11	35.042	-21.716	-154.04	25.46	-48.506	-244.36	128.56	-9.9877	105.55	206.47	129.96	51.46	552.93	194.85	-312.49	146.13	-42.537	-184.12	152.07	-59.237	-29.661	888.41	222.18	-238.56	42.721	-104.37	139.88	128.4	66.48	-202.17	842.24	-21.058	-184.04	838.93	85.342	-273.57	128.47	-87.657	76.281	391.54	143.6	84.27	809.84	160.03	208.91	34.123	24.897	263.62	40.579	53.607	44.372	29.665	62.783	106.53	69.737	21.567	193.02	21.359	118.23	102.57	59.488	104.85
361	1.805	123.63	1421.9	-15.01	116.96	1410.9	81.004	-8.2924	1352	-41.424	-15.771	1344.8	91.214	-52.42	1262.8	22.008	-141.65	1063.3	24.408	88.132	1177.1	17.232	138.91	1069.5	15.54	-98.183	1134.8	136.28	50.037	805.56	-153.51	21.026	1197.4	200.56	33.376	1046.6	271.95	28.849	917.23	293.63	88.561	801.42	294.21	102.26	701.01	255.45	71.321	702.19	320.77	118.66	645.74	305.74	13.297	1215.3	-168.85	38.22	1052.6	-243.07	13.755	933.26	-269.74	-19.143	903.41	-207.27	106.99	864.11	-279.98	181.13	786.98	-241	147.84	760.49	-287.34	205.12	739.16	-280.18	35.612	634.44	217.97	84.008	475.59	164.93	109.48	577.05	173.31	140.23	297.92	86.224	137.2	211.33	76.387	-13.424	641.62	-203.55	-19.845	470.84	-168.8	36.001	561.69	-163.95	-16.242	555.88	-190.4	-11.956	368.73	-139.57	-52.125	270.48	-73.928	-136.47	226.28	-124.02	-118.51	213.33	-65.86	-195.01	35.974	-21.867	-153.35	25.538	-48.788	-237.71	132.43	-10.659	108.1	206.14	130.2	57.921	553.82	194.88	-305.29	152.25	-42.775	-177.27	154.88	-60.109	-23.378	888.69	222.7	-235.73	45.668	-104.36	141.09	127.73	66.396	-196.68	841.74	-20.752	-178.45	839.14	85.632	-267.38	133.24	-88.01	81.328	391.78	144	90.394	810.58	160.69	208.92	33.062	24.61	263.99	39.032	52.989	44.341	29.921	62.834	106.8	69.533	21.449	192.96	21.074	118.43	102.85	59.411	104.76
